<?xml version="1.0" encoding="UTF-8" standalone="no"?>
<svg width="29px" height="30px" viewBox="0 0 29 30" version="1.1" xmlns="http://www.w3.org/2000/svg" xmlns:xlink="http://www.w3.org/1999/xlink" xmlns:sketch="http://www.bohemiancoding.com/sketch/ns">
    <!-- Generator: Sketch 3.3.2 (12043) - http://www.bohemiancoding.com/sketch -->
    <title>Facebook</title>
    <desc>Created with Sketch.</desc>
    <defs></defs>
    <g id="1st-Iterations" stroke="none" stroke-width="1" fill="none" fill-rule="evenodd" sketch:type="MSPage">
        <g id="GloMo-Burda-Footer,-tablet-portrait-Copy" sketch:type="MSArtboardGroup" transform="translate(-301.000000, -348.000000)" fill="#395898">
            <g id="Photo-placeholder-Copy-9-+-Photo-placeholder-Copy-3-+-AD-Copy-Copy-+-Ad_600x500-Copy-Copy-+-Group-+-Arrow,-filled-+-International-Editio-+-Bitmap-Copy-+-Connect-With-Us-+-social24-+-Group-Copy-10-Copy" sketch:type="MSLayerGroup" transform="translate(265.000000, 283.500000)">
                <g id="Connect-With-Us-+-social24-+-Group-Copy-10" transform="translate(36.000000, 64.691406)" sketch:type="MSShapeGroup">
                    <g id="Group-Copy" transform="translate(0.106742, 0.000000)">
                        <path d="M27.1934289,0 L1.6208004,0 C0.720355731,0 0,0.725 0,1.63125 L0,27.36875 C0,28.275 0.720355731,29 1.6208004,29 L15.4876482,29 L15.4876482,17.7625 L11.7057806,17.7625 L11.7057806,13.4125 L15.4876482,13.4125 L15.4876482,10.15 C15.4876482,6.34375 17.8288043,4.35 21.0704051,4.35 C22.6912055,4.35 23.9518281,4.53125 24.4920949,4.53125 L24.4920949,8.51875 L22.1509387,8.51875 C20.3500494,8.51875 19.9898715,9.425 19.9898715,10.69375 L19.9898715,13.4125 L24.3120059,13.4125 L23.7717391,17.7625 L19.8097826,17.7625 L19.8097826,29 L27.1934289,29 C28.0938735,29 28.8142292,28.275 28.8142292,27.36875 L28.8142292,1.63125 C28.8142292,0.725 28.0938735,0 27.1934289,0" id="Facebook"></path>
                    </g>
                </g>
            </g>
        </g>
    </g>
</svg>