<?xml version="1.0" encoding="UTF-8" standalone="no"?>
<svg width="29px" height="27px" viewBox="0 0 29 27" version="1.1" xmlns="http://www.w3.org/2000/svg" xmlns:xlink="http://www.w3.org/1999/xlink" xmlns:sketch="http://www.bohemiancoding.com/sketch/ns">
    <!-- Generator: Sketch 3.3.2 (12043) - http://www.bohemiancoding.com/sketch -->
    <title>Google +</title>
    <desc>Created with Sketch.</desc>
    <defs></defs>
    <g id="1st-Iterations" stroke="none" stroke-width="1" fill="none" fill-rule="evenodd" sketch:type="MSPage">
        <g id="GloMo-Burda-Footer,-tablet-portrait-Copy" sketch:type="MSArtboardGroup" transform="translate(-426.000000, -350.000000)" fill="#DB4F3E">
            <g id="Photo-placeholder-Copy-9-+-Photo-placeholder-Copy-3-+-AD-Copy-Copy-+-Ad_600x500-Copy-Copy-+-Group-+-Arrow,-filled-+-International-Editio-+-Bitmap-Copy-+-Connect-With-Us-+-social24-+-Group-Copy-10-Copy" sketch:type="MSLayerGroup" transform="translate(265.000000, 283.500000)">
                <g id="Connect-With-Us-+-social24-+-Group-Copy-10" transform="translate(36.000000, 64.691406)" sketch:type="MSShapeGroup">
                    <g id="Group-Copy" transform="translate(0.106742, 0.000000)">
                        <path d="M136.248124,19.6637556 C136.092702,19.55188 135.932041,19.4363956 135.765268,19.3145956 C135.280665,19.1603156 134.769867,19.0791156 134.243352,19.0737022 L134.177866,19.0737022 C131.737388,19.0737022 129.596403,20.6219156 129.596403,22.3875644 C129.596403,24.3102 131.42567,25.8160089 133.760496,25.8160089 C135.457043,25.8160089 136.708279,25.47948 137.479278,24.8154444 C138.108825,24.2723067 138.415304,23.5162444 138.415304,22.5030489 C138.415304,22.2955378 138.391728,22.0835156 138.344578,21.8723956 C138.145498,21.0594933 137.488009,20.5560533 136.248124,19.6637556 L136.248124,19.6637556 Z M139.590575,26.5964311 C138.126288,27.8478133 136.116277,28.5091422 133.776213,28.5091422 C131.616892,28.5091422 129.61212,28.0399867 128.131243,27.1891911 C126.455652,26.22652 125.533597,24.8172489 125.533597,23.2203156 C125.533597,21.6017289 126.392785,19.9831422 127.890252,18.7795778 C129.37724,17.5841333 131.321764,16.9173911 133.37456,16.89664 C133.154524,16.4338 133.043633,15.95472 133.043633,15.4639111 C133.043633,15.2302356 133.068081,14.9938533 133.117851,14.7547644 C131.460596,14.67988 129.964003,14.0266711 128.876047,12.8961867 C127.747927,11.7242 127.126238,10.1236578 127.126238,8.38958667 C127.126238,6.73130222 127.933036,5.07392 129.340568,3.84058222 C130.700075,2.64964889 132.484811,1.96666667 134.23724,1.96666667 L144.230539,1.96666667 L141.873011,4.67784444 L139.60018,4.67784444 C140.294341,5.64773333 140.695994,6.96768444 140.695994,8.43920889 C140.695994,10.1759867 139.863,11.8180311 138.351563,13.0649022 C137.208599,14.0068222 137.20336,14.2314756 137.20336,14.71236 C137.246144,15.0118978 138.026748,15.9321644 138.850137,16.54748 C140.939605,18.10652 141.716716,19.6348844 141.716716,22.1863689 C141.716716,23.8347289 140.942224,25.4424889 139.591448,26.5973333 L139.590575,26.5964311 L139.590575,26.5964311 Z M148.538703,9.3288 L148.538703,13.98156 L146.2877,13.98156 L146.2877,9.3288 L141.784822,9.3288 L141.784822,7.00287111 L146.2877,7.00287111 L146.2877,2.35011111 L148.538703,2.35011111 L148.538703,7.00287111 L153.041581,7.00287111 L153.041581,9.3288 L148.538703,9.3288 L148.538703,9.3288 Z M135.930295,11.86224 C136.538013,11.14768 136.806946,9.96035556 136.648031,8.68551556 C136.367747,6.43898222 134.865041,4.57138222 133.296849,4.52176 C133.276766,4.52085778 133.256683,4.52085778 133.236601,4.52085778 C132.707467,4.52085778 132.235088,4.74821778 131.869235,5.17767556 C131.270248,5.88140889 131.017032,7.01369778 131.175074,8.28402667 C131.455358,10.53056 132.989497,12.4694356 134.526256,12.5181556 C135.066741,12.5352978 135.552217,12.30884 135.930295,11.8631422 L135.930295,11.86224 L135.930295,11.86224 Z" id="Google-+"></path>
                    </g>
                </g>
            </g>
        </g>
    </g>
</svg>