<?xml version="1.0" encoding="UTF-8" standalone="no"?>
<svg width="30px" height="29px" viewBox="0 0 30 29" version="1.1" xmlns="http://www.w3.org/2000/svg" xmlns:xlink="http://www.w3.org/1999/xlink" xmlns:sketch="http://www.bohemiancoding.com/sketch/ns">
    <!-- Generator: Sketch 3.3.2 (12043) - http://www.bohemiancoding.com/sketch -->
    <title>Instagram</title>
    <desc>Created with Sketch.</desc>
    <defs></defs>
    <g id="1st-Iterations" stroke="none" stroke-width="1" fill="none" fill-rule="evenodd" sketch:type="MSPage">
        <g id="GloMo-Burda-Footer,-tablet-portrait-Copy" sketch:type="MSArtboardGroup" transform="translate(-302.000000, -409.000000)" fill="#393939">
            <g id="Photo-placeholder-Copy-9-+-Photo-placeholder-Copy-3-+-AD-Copy-Copy-+-Ad_600x500-Copy-Copy-+-Group-+-Arrow,-filled-+-International-Editio-+-Bitmap-Copy-+-Connect-With-Us-+-social24-+-Group-Copy-10-Copy" sketch:type="MSLayerGroup" transform="translate(265.000000, 283.500000)">
                <g id="Connect-With-Us-+-social24-+-Group-Copy-10" transform="translate(36.000000, 64.691406)" sketch:type="MSShapeGroup">
                    <g id="Group-Copy" transform="translate(0.106742, 0.000000)">
                        <path d="M26.7644541,73.151 L24.2810277,73.151 C24.4593157,73.8587812 24.56917,74.5955625 24.56917,75.3604375 C24.56917,80.2442187 20.638729,84.2 15.7862327,84.2 C10.9337364,84.2 7.00329545,80.2442187 7.00329545,75.3604375 C7.00329545,74.5946562 7.1131497,73.857875 7.29143775,73.151 L4.80801136,73.151 L4.80801136,85.3074375 C4.80801136,85.9164375 5.29785326,86.4094375 5.90835474,86.4094375 L25.6695133,86.4094375 C26.2746122,86.4094375 26.7698567,85.9164375 26.7698567,85.3074375 L26.7698567,73.151 L26.7644541,73.151 L26.7644541,73.151 Z M26.7644541,65.4134375 C26.7644541,64.8044375 26.2746122,64.3114375 25.6641107,64.3114375 L22.3738859,64.3114375 C21.7687871,64.3114375 21.2789452,64.8044375 21.2789452,65.4134375 L21.2789452,68.7312188 C21.2789452,69.3402188 21.7687871,69.8332188 22.3738859,69.8332188 L25.6641107,69.8332188 C26.2692095,69.8332188 26.7644541,69.3402188 26.7644541,68.7312188 L26.7644541,65.4134375 L26.7644541,65.4134375 Z M15.7862327,69.8332188 C12.755336,69.8332188 10.2998234,72.3036563 10.2998234,75.355 C10.2998234,78.4063438 12.7544355,80.8822188 15.7862327,80.8822188 C18.8180299,80.8822188 21.2780447,78.4054375 21.2780447,75.355 C21.272642,72.31 18.8171294,69.8332188 15.7862327,69.8332188 L15.7862327,69.8332188 Z M26.7644541,89.7217813 L4.80801136,89.7217813 C2.98731225,89.7217813 1.51778656,88.2373438 1.51778656,86.404 L1.51778656,64.306 C1.51778656,62.479 2.98731225,61 4.80801136,61 L26.7644541,61 C28.5851532,61 30.0546789,62.4844375 30.0546789,64.3114375 L30.0546789,86.4094375 C30.0546789,88.2364375 28.5797505,89.720875 26.7644541,89.720875 L26.7644541,89.7217813 L26.7644541,89.7217813 Z" id="Instagram"></path>
                    </g>
                </g>
            </g>
        </g>
    </g>
</svg>