<?xml version="1.0" encoding="UTF-8" standalone="no"?>
<svg width="29px" height="24px" viewBox="0 0 29 24" version="1.1" xmlns="http://www.w3.org/2000/svg" xmlns:xlink="http://www.w3.org/1999/xlink" xmlns:sketch="http://www.bohemiancoding.com/sketch/ns">
    <!-- Generator: Sketch 3.3.2 (12043) - http://www.bohemiancoding.com/sketch -->
    <title>Twitter</title>
    <desc>Created with Sketch.</desc>
    <defs></defs>
    <g id="1st-Iterations" stroke="none" stroke-width="1" fill="none" fill-rule="evenodd" sketch:type="MSPage">
        <g id="GloMo-Burda-Footer,-tablet-portrait-Copy" sketch:type="MSArtboardGroup" transform="translate(-365.000000, -351.000000)" fill="#60A9DD">
            <g id="Photo-placeholder-Copy-9-+-Photo-placeholder-Copy-3-+-AD-Copy-Copy-+-Ad_600x500-Copy-Copy-+-Group-+-Arrow,-filled-+-International-Editio-+-Bitmap-Copy-+-Connect-With-Us-+-social24-+-Group-Copy-10-Copy" sketch:type="MSLayerGroup" transform="translate(265.000000, 283.500000)">
                <g id="Connect-With-Us-+-social24-+-Group-Copy-10" transform="translate(36.000000, 64.691406)" sketch:type="MSShapeGroup">
                    <g id="Group-Copy" transform="translate(0.106742, 0.000000)">
                        <path d="M92.5704024,5.69620476 C91.5426949,6.1647619 90.4372763,6.48162143 89.2777219,6.62434286 C90.4608516,5.89457857 91.3698096,4.74024048 91.7985304,3.36419048 C90.6904923,4.0392 89.4637046,4.53019762 88.1583327,4.79409762 C87.1122889,3.64873571 85.6226806,2.93333333 83.9741574,2.93333333 C80.8080848,2.93333333 78.2418721,5.57143571 78.2418721,8.82620238 C78.2418721,9.28847619 78.2925153,9.73818333 78.390309,10.1690405 C73.6263564,9.92309286 69.4020158,7.57671667 66.5747287,4.01137381 C66.0813942,4.88206429 65.7984908,5.89368095 65.7984908,6.97441429 C65.7984908,9.01919048 66.8104815,10.8225071 68.3489867,11.8799024 C67.4094682,11.8493833 66.5258318,11.5845857 65.7522134,11.1429571 C65.7513403,11.1671929 65.7513403,11.1923262 65.7513403,11.2174595 C65.7513403,14.0727857 67.7272979,16.454169 70.3493927,16.9954333 C69.8682824,17.1300762 69.3618505,17.2018857 68.8388286,17.2018857 C68.4694826,17.2018857 68.1106144,17.1650833 67.7604779,17.0959667 C68.4895652,19.4369571 70.6069745,21.1406381 73.1155587,21.1882119 C71.1535717,22.768919 68.6816601,23.7105214 65.9958246,23.7105214 C65.5330507,23.7105214 65.0772619,23.6826952 64.6284585,23.6279405 C67.1649838,25.3002048 70.1782537,26.2759167 73.4159253,26.2759167 C83.9601868,26.2759167 89.7256522,17.2961357 89.7256522,9.50839286 C89.7256522,9.25257143 89.7204132,8.99854524 89.7090622,8.74631429 C90.8293245,7.91511905 91.8011498,6.87747143 92.5695293,5.69620476 L92.5704024,5.69620476" id="Twitter"></path>
                    </g>
                </g>
            </g>
        </g>
    </g>
</svg>