<?xml version="1.0" encoding="UTF-8" standalone="no"?>
<svg width="37px" height="17px" viewBox="0 0 37 17" version="1.1" xmlns="http://www.w3.org/2000/svg" xmlns:xlink="http://www.w3.org/1999/xlink" xmlns:sketch="http://www.bohemiancoding.com/sketch/ns">
    <!-- Generator: Sketch 3.3.2 (12043) - http://www.bohemiancoding.com/sketch -->
    <title>Group</title>
    <desc>Created with Sketch.</desc>
    <defs></defs>
    <g id="1st-Iterations" stroke="none" stroke-width="1" fill="none" fill-rule="evenodd" sketch:type="MSPage">
        <g id="GloMo-Burda-Footer,-tablet-portrait-Copy" sketch:type="MSArtboardGroup" transform="translate(-358.000000, -416.000000)">
            <g id="Photo-placeholder-Copy-9-+-Photo-placeholder-Copy-3-+-AD-Copy-Copy-+-Ad_600x500-Copy-Copy-+-Group-+-Arrow,-filled-+-International-Editio-+-Bitmap-Copy-+-Connect-With-Us-+-social24-+-Group-Copy-10-Copy" sketch:type="MSLayerGroup" transform="translate(265.000000, 283.500000)">
                <g id="Connect-With-Us-+-social24-+-Group-Copy-10" transform="translate(36.000000, 64.691406)" sketch:type="MSShapeGroup">
                    <g id="Group-Copy" transform="translate(0.106742, 0.000000)">
                        <g id="Group" transform="translate(57.501976, 67.766667)">
                            <path d="M13.6719316,13.8143571 L12.3066774,13.8143571 L12.3066774,12.9555429 C11.7888617,13.5993429 11.3508854,13.9262143 10.8684271,13.9262143 C10.4452782,13.9262143 10.153294,13.7112 10.0073019,13.3221857 C9.91947851,13.0835571 9.8544664,12.7181571 9.8544664,12.1688143 L9.8544664,5.90108571 L11.2197206,5.90108571 L11.2197206,11.7798 L11.2197206,12.3291429 C11.2493752,12.5516143 11.3360581,12.6311571 11.5117048,12.6311571 C11.7740343,12.6311571 12.0078498,12.3850714 12.299834,11.9388857 L12.299834,5.90108571 L13.6650882,5.90108571 L13.6650882,13.8156 L13.6719316,13.8143571" id="Fill-1" fill="#000000"></path>
                            <path d="M8.84734906,8.47752857 C8.84734906,7.63487143 8.69451359,6.99852857 8.41621616,6.59211429 C8.05123592,6.05147143 7.48209486,5.829 6.90496986,5.829 C6.25484881,5.829 5.7587038,6.05147143 5.39372357,6.59211429 C5.1165667,6.98982857 4.96259066,7.63362857 4.96259066,8.47752857 L4.96259066,11.2938429 C4.96259066,12.1365 5.09375543,12.7181571 5.37889625,13.1158714 C5.74387648,13.6565143 6.33468824,13.9436143 6.90496986,13.9436143 C7.47525148,13.9436143 8.07975,13.6577571 8.44473024,13.1158714 C8.7218871,12.7181571 8.8462085,12.1377429 8.8462085,11.2938429 L8.8462085,8.47752857 L8.84734906,8.47752857 L8.84734906,8.47752857 Z M7.48209486,11.4603857 C7.55509091,12.2483571 7.32925939,12.6299143 6.90496986,12.6299143 C6.48068034,12.6299143 6.25484881,12.2396571 6.32784486,11.4603857 L6.32784486,8.3259 C6.25484881,7.53792857 6.48068034,7.17252857 6.90496986,7.17252857 C7.32925939,7.17252857 7.55509091,7.53792857 7.48209486,8.3259 L7.48209486,11.4603857 L7.48209486,11.4603857 Z" id="Fill-2" fill="#000000"></path>
                            <path d="M3.45248493,9.50288571 L3.45248493,13.8143571 L2.01423468,13.8143571 L2.01423468,9.50288571 C2.01423468,9.50288571 0.524659091,4.21328571 0.218988142,3.23515714 L1.73023444,3.23515714 L2.73735178,7.36392857 L3.74446912,3.23515714 L5.25571542,3.23515714 L3.45248493,9.50288571" id="Fill-3" fill="#000000"></path>
                            <path d="M27.7316546,7.15637143 C27.5195099,7.15637143 27.2720077,7.27568571 27.0530195,7.51431429 L27.0530195,12.2707286 C27.2720077,12.5093571 27.5206504,12.6286714 27.7316546,12.6286714 C28.1034783,12.6286714 28.279125,12.3266571 28.279125,11.5473857 L28.279125,8.17427143 C28.2722816,7.37884286 28.1034783,7.15637143 27.7316546,7.15637143" id="Fill-4" fill="#C70000"></path>
                            <path d="M36.0452201,4.08651429 C36.0452201,4.08651429 35.8330753,2.4795 35.1909382,1.77231429 C34.3731544,0.841414286 33.4607038,0.841414286 33.0375548,0.785485714 C30.0298896,0.546857143 25.518962,0.546857143 25.518962,0.546857143 L25.5121186,0.546857143 C25.5121186,0.546857143 21.001191,0.546857143 17.9935257,0.785485714 C17.5703767,0.841414286 16.6579261,0.841414286 15.8401423,1.77231429 C15.1980052,2.48074286 14.9858604,4.08651429 14.9858604,4.08651429 C14.9858604,4.08651429 14.7737157,5.97192857 14.7737157,7.85734286 L14.7737157,9.62344286 C14.7737157,11.5088571 14.9858604,13.3942714 14.9858604,13.3942714 C14.9858604,13.3942714 15.1980052,15.0012857 15.8401423,15.7084714 C16.6579261,16.6393714 17.7311961,16.6070571 18.2056705,16.7027571 C19.9210776,16.8854571 25.5121186,16.9339286 25.5121186,16.9339286 C25.5121186,16.9339286 30.0230462,16.9264714 33.0307115,16.6878429 C33.4538604,16.6319143 34.366311,16.6319143 35.1840949,15.7010143 C35.826232,14.9925857 36.0383767,13.3868143 36.0383767,13.3868143 C36.0383767,13.3868143 36.2505215,11.5014 36.2505215,9.61598571 L36.2505215,7.84988571 C36.2573649,5.97317143 36.0463607,4.08775714 36.0463607,4.08775714 L36.0452201,4.08651429 L36.0452201,4.08651429 Z M19.496788,13.8143571 L18.0585378,13.8143571 L18.0585378,4.7937 L16.5472915,4.7937 L16.5472915,3.306 L21.0798898,3.306 L21.0798898,4.7937 L19.4956475,4.7937 L19.4956475,13.8143571 L19.496788,13.8143571 L19.496788,13.8143571 Z M24.672664,13.8143571 L23.3074098,13.8143571 L23.3074098,12.9555429 C22.7895941,13.5993429 22.3516178,13.9262143 21.8691596,13.9262143 C21.4460106,13.9262143 21.1540264,13.7112 21.0080343,13.3221857 C20.920211,13.0835571 20.8551989,12.7181571 20.8551989,12.1688143 L20.8551989,5.97192857 L22.2204531,5.97192857 L22.2204531,11.7711 L22.2204531,12.3204429 C22.2501077,12.5429143 22.3367905,12.6224571 22.5124373,12.6224571 C22.7747668,12.6224571 23.0085823,12.3763714 23.3005665,11.9301857 L23.3005665,5.97192857 L24.672664,5.97192857 L24.672664,13.8143571 L24.672664,13.8143571 Z M29.6363953,11.4603857 C29.6363953,12.1837286 29.5782265,12.6933 29.4904032,13.0276286 C29.3147564,13.6080429 28.9360894,13.9100571 28.4171332,13.9100571 C27.9574862,13.9100571 27.4830119,13.6080429 27.0450356,13.0189286 L27.0450356,13.8069 L25.7527774,13.8069 L25.7527774,3.30724286 L27.0450356,3.30724286 L27.0450356,6.73504286 C27.4681845,6.17078571 27.9426588,5.85261429 28.4251171,5.85261429 C28.9429328,5.85261429 29.2942263,6.17824286 29.4687325,6.76735714 C29.5565558,7.08552857 29.6443792,7.5864 29.6443792,8.3346 L29.6443792,11.4603857 L29.6363953,11.4603857 L29.6363953,11.4603857 Z M32.4980684,12.6212143 C32.8197073,12.6212143 33.0090408,12.4298143 33.0820368,12.0482571 C33.0968641,11.9687143 33.0888802,11.6343857 33.0888802,11.0614286 L34.4541344,11.0614286 L34.4541344,11.2839 C34.4541344,11.7375429 34.4176364,12.0631714 34.410793,12.2061 C34.3674516,12.5242714 34.2648009,12.8026714 34.1039815,13.0574571 C33.7458446,13.6304143 33.2063582,13.9088143 32.5277231,13.9088143 C31.8490879,13.9088143 31.3301317,13.6378714 30.9514647,13.1059286 C30.6743078,12.7156714 30.4986611,12.1278 30.4986611,11.3000571 L30.4986611,8.55582857 C30.4986611,7.72062857 30.6594805,7.06812857 30.9366374,6.67911429 C31.3164449,6.14592857 31.8342606,5.86007143 32.499209,5.86007143 C33.1561734,5.86007143 33.6739891,6.14592857 34.0389694,6.67911429 C34.3092829,7.07682857 34.4621183,7.68955714 34.4621183,8.52475714 L34.4621183,10.1230714 L31.8707586,10.1230714 L31.8707586,11.5312286 C31.8639153,12.2545714 32.0532488,12.6212143 32.4980684,12.6212143 L32.4980684,12.6212143 Z" id="Fill-6" fill="#C70000"></path>
                        </g>
                    </g>
                </g>
            </g>
        </g>
    </g>
</svg>